# xmcd CD database file
#
# Track frame offsets:
#	150
#	13367
#	32840
#	52300
#	64062
#	84510
#	106755
#	123177
#	132695
#	147710
#	167777
#	178262
#	195875
#	212780
#	229667
#	245342
#	264382
#	281827
#	300762
#	313302
#
# Disc length: 4378 seconds
#
# Revision: 0
# Processed by: cddbd v1.4PL0 Copyright (c) Steve Scherf et al.
# Submitted via: CDex 1.40Beta9
#
DISCID=2c111814
DTITLE=Good Brothers - Live
DYEAR=1980
DGENRE=Country
TTITLE0=Fox On The Run
TTITLE1=Red Neck Mothers
TTITLE2=Brown Eyed Girl
TTITLE3=Uncle Billy's Breakdown
TTITLE4=Please Come Back To Me
TTITLE5=Out Among The Stars
TTITLE6=Oakie From Muskogee
TTITLE7=Did You Ever Have To Make Up Your Mind
TTITLE8=China Cafe
TTITLE9=Hot Knife Boogie
TTITLE10=Ol' Kentucky
TTITLE11=Kitty Star
TTITLE12=You Lied And You Cheated
TTITLE13=Battle Of New Orleans
TTITLE14=Just Another Cowboy
TTITLE15=Mr. Tambourine Man
TTITLE16=Some Kinda Woman
TTITLE17=Dead Flowers
TTITLE18=The Rabbit
TTITLE19=Alberta Bound
EXTD=YEAR: 1980 ID3G: 2
EXTT0=
EXTT1=
EXTT2=
EXTT3=
EXTT4=
EXTT5=
EXTT6=
EXTT7=
EXTT8=
EXTT9=
EXTT10=
EXTT11=
EXTT12=
EXTT13=
EXTT14=
EXTT15=
EXTT16=
EXTT17=
EXTT18=
EXTT19=
PLAYORDER=
